<svg style='width:100%;height:auto;font-size:80%;font-family:MonteCarlo;margin:10px 0 10px 0;' xmlns='http://www.w3.org/2000/svg'  class="pikchr" viewBox="0 0 60.48 81.5631"><def><style type="text/css">@import url(https://fonts.googleapis.com/css2?family=MonteCarlo:wght@400);</style></def>
<path d="M30.24,1.44L59.04,26.3815L59.04,55.1815L30.24,80.1231L1.44,55.1815L1.44,26.3815L30.24,1.44Z"  style="fill:rgb(39,174,96);stroke-width:1.44;stroke-linejoin:round;stroke:rgb(25,111,61);" />
<text lengthAdjust="spacingAndGlyphs"  x="30.24" y="40.7815" text-anchor="middle" fill="rgb(255,255,255)" font-size="80%" dominant-baseline="central">Pikchr</text>
<circle cx="30.24" cy="9.30831" r="1.44"  style="fill:none;stroke-width:0.9648;stroke:rgb(125,206,160);" />
<circle cx="53.28" cy="29.2615" r="1.44"  style="fill:none;stroke-width:0.9648;stroke:rgb(125,206,160);" />
<circle cx="53.28" cy="52.3015" r="1.44"  style="fill:none;stroke-width:0.9648;stroke:rgb(125,206,160);" />
<circle cx="30.24" cy="72.2548" r="1.44"  style="fill:none;stroke-width:0.9648;stroke:rgb(125,206,160);" />
<circle cx="7.2" cy="52.3015" r="1.44"  style="fill:none;stroke-width:0.9648;stroke:rgb(125,206,160);" />
<circle cx="7.2" cy="29.2615" r="1.44"  style="fill:none;stroke-width:0.9648;stroke:rgb(125,206,160);" />
<path d="M31.2582,10.3265L52.2618,28.2433"  style="fill:none;stroke-width:0.9648;stroke:rgb(125,206,160);" />
<path d="M53.28,30.7015L53.28,50.8615"  style="fill:none;stroke-width:0.9648;stroke:rgb(125,206,160);" />
<path d="M52.2618,53.3198L31.2582,71.2365"  style="fill:none;stroke-width:0.9648;stroke:rgb(125,206,160);" />
<path d="M29.2218,71.2365L8.21823,53.3198"  style="fill:none;stroke-width:0.9648;stroke:rgb(125,206,160);" />
<path d="M7.2,50.8615L7.2,30.7015"  style="fill:none;stroke-width:0.9648;stroke:rgb(125,206,160);" />
<path d="M8.21823,28.2433L29.2218,10.3265"  style="fill:none;stroke-width:0.9648;stroke:rgb(125,206,160);" />
<circle cx="30.24" cy="17.1766" r="1.44"  style="fill:none;stroke-width:0.9648;stroke:rgb(82,190,128);" />
<circle cx="47.52" cy="32.1415" r="1.44"  style="fill:none;stroke-width:0.9648;stroke:rgb(82,190,128);" />
<circle cx="47.52" cy="49.4215" r="1.44"  style="fill:none;stroke-width:0.9648;stroke:rgb(82,190,128);" />
<circle cx="30.24" cy="64.3865" r="1.44"  style="fill:none;stroke-width:0.9648;stroke:rgb(82,190,128);" />
<circle cx="12.96" cy="49.4215" r="1.44"  style="fill:none;stroke-width:0.9648;stroke:rgb(82,190,128);" />
<circle cx="12.96" cy="32.1415" r="1.44"  style="fill:none;stroke-width:0.9648;stroke:rgb(82,190,128);" />
<path d="M31.2582,18.1948L46.5018,31.1233"  style="fill:none;stroke-width:0.9648;stroke:rgb(82,190,128);" />
<path d="M47.52,33.5815L47.52,47.9815"  style="fill:none;stroke-width:0.9648;stroke:rgb(82,190,128);" />
<path d="M46.5018,50.4398L31.2582,63.3682"  style="fill:none;stroke-width:0.9648;stroke:rgb(82,190,128);" />
<path d="M29.2218,63.3682L13.9782,50.4398"  style="fill:none;stroke-width:0.9648;stroke:rgb(82,190,128);" />
<path d="M12.96,47.9815L12.96,33.5815"  style="fill:none;stroke-width:0.9648;stroke:rgb(82,190,128);" />
<path d="M13.9782,31.1233L29.2218,18.1948"  style="fill:none;stroke-width:0.9648;stroke:rgb(82,190,128);" />
<path d="M46.5018,50.4398Q30.24,66.7015 13.9782,50.4398"  style="fill:none;stroke-width:0.9648;stroke:rgb(82,190,128);" />
<path d="M46.5018,31.1233Q30.24,14.8615 13.9782,31.1233"  style="fill:none;stroke-width:0.9648;stroke:rgb(82,190,128);" />
</svg>

