<svg style='width:100%;height:auto;font-size:80%;font-family:MonteCarlo;margin:10px 0 10px 0;' xmlns='http://www.w3.org/2000/svg' class="pikchr" viewBox="0 0 71.0216 81.5631"><defs><style type="text/css">@import url(https://fonts.googleapis.com/css2?family=MonteCarlo:wght@400);</style></defs>
<path d="M35.5108,1.44L69.5816,21.1108L69.5816,60.4523L35.5108,80.1231L1.44,60.4523L1.44,21.1108Z"  style="fill:rgb(39,174,96);stroke-width:1.44;stroke-linejoin:round;stroke:rgb(25,111,61);" />
<text lengthAdjust="spacingAndGlyphs"  x="35.5108" y="40.7815" text-anchor="middle" fill="rgb(255,255,255)" font-size="80%" dominant-baseline="central">Pikchr</text>
<circle cx="35.5108" cy="9.3079" r="1.44"  style="fill:none;stroke-width:0.9648;stroke:rgb(125,206,160);" />
<circle cx="62.7677" cy="25.0447" r="1.44"  style="fill:none;stroke-width:0.9648;stroke:rgb(125,206,160);" />
<circle cx="62.7677" cy="56.5183" r="1.44"  style="fill:none;stroke-width:0.9648;stroke:rgb(125,206,160);" />
<circle cx="35.5108" cy="72.2552" r="1.44"  style="fill:none;stroke-width:0.9648;stroke:rgb(125,206,160);" />
<circle cx="8.2538" cy="56.5183" r="1.44"  style="fill:none;stroke-width:0.9648;stroke:rgb(125,206,160);" />
<circle cx="8.2538" cy="25.0447" r="1.44"  style="fill:none;stroke-width:0.9648;stroke:rgb(125,206,160);" />
<path d="M36.7579,10.0279L61.5206,24.3247"  style="fill:none;stroke-width:0.9648;stroke:rgb(125,206,160);" />
<path d="M62.7677,26.4847L62.7677,55.0784"  style="fill:none;stroke-width:0.9648;stroke:rgb(125,206,160);" />
<path d="M61.5206,57.2383L36.7579,71.5352"  style="fill:none;stroke-width:0.9648;stroke:rgb(125,206,160);" />
<path d="M34.2637,71.5352L9.5009,57.2383"  style="fill:none;stroke-width:0.9648;stroke:rgb(125,206,160);" />
<path d="M8.2538,55.0784L8.2538,26.4847"  style="fill:none;stroke-width:0.9648;stroke:rgb(125,206,160);" />
<path d="M9.5009,24.3247L34.2637,10.0279"  style="fill:none;stroke-width:0.9648;stroke:rgb(125,206,160);" />
<circle cx="35.5108" cy="17.1765" r="1.44"  style="fill:none;stroke-width:0.9648;stroke:rgb(82,190,128);" />
<circle cx="55.9533" cy="28.979" r="1.44"  style="fill:none;stroke-width:0.9648;stroke:rgb(82,190,128);" />
<circle cx="55.9533" cy="52.584" r="1.44"  style="fill:none;stroke-width:0.9648;stroke:rgb(82,190,128);" />
<circle cx="35.5108" cy="64.3865" r="1.44"  style="fill:none;stroke-width:0.9648;stroke:rgb(82,190,128);" />
<circle cx="15.0683" cy="52.584" r="1.44"  style="fill:none;stroke-width:0.9648;stroke:rgb(82,190,128);" />
<circle cx="15.0683" cy="28.979" r="1.44"  style="fill:none;stroke-width:0.9648;stroke:rgb(82,190,128);" />
<path d="M36.7579,17.8965L54.7062,28.259"  style="fill:none;stroke-width:0.9648;stroke:rgb(82,190,128);" />
<path d="M55.9533,30.419L55.9533,51.1441"  style="fill:none;stroke-width:0.9648;stroke:rgb(82,190,128);" />
<path d="M54.7062,53.304L36.7579,63.6666"  style="fill:none;stroke-width:0.9648;stroke:rgb(82,190,128);" />
<path d="M34.2637,63.6666L16.3153,53.304"  style="fill:none;stroke-width:0.9648;stroke:rgb(82,190,128);" />
<path d="M15.0683,51.1441L15.0683,30.419"  style="fill:none;stroke-width:0.9648;stroke:rgb(82,190,128);" />
<path d="M16.3153,28.259L34.2637,17.8965"  style="fill:none;stroke-width:0.9648;stroke:rgb(82,190,128);" />
<path d="M54.7683,53.4021Q35.5108,66.6966 16.2533,53.4021"  style="fill:none;stroke-width:0.9648;stroke:rgb(82,190,128);" />
<path d="M54.7683,28.161Q35.5108,14.8665 16.2533,28.161"  style="fill:none;stroke-width:0.9648;stroke:rgb(82,190,128);" />
</svg>
