<svg style='width:100%;height:auto;font-size:80%;font-family:MonteCarlo;margin:10px 0 10px 0;' xmlns='http://www.w3.org/2000/svg' class="pikchr" viewBox="0 0 79.6616 90.2031"><defs><style type="text/css">@import url(https://fonts.googleapis.com/css2?family=MonteCarlo:wght@400);</style></defs>
<path d="M39.8308,5.76L73.9016,25.4308L73.9016,64.7723L39.8308,84.4431L5.76,64.7723L5.76,25.4308Z"  style="fill:rgb(39,174,96);stroke-width:1.44;stroke-linejoin:round;stroke:rgb(25,111,61);" />
<text lengthAdjust="spacingAndGlyphs"  x="39.8308" y="45.1015" text-anchor="middle" fill="rgb(255,255,255)" font-size="80%" dominant-baseline="central">Pikchr</text>
<circle cx="39.8308" cy="13.6279" r="1.44"  style="fill:none;stroke-width:0.9648;stroke:rgb(125,206,160);" />
<circle cx="67.0877" cy="29.3647" r="1.44"  style="fill:none;stroke-width:0.9648;stroke:rgb(125,206,160);" />
<circle cx="67.0877" cy="60.8383" r="1.44"  style="fill:none;stroke-width:0.9648;stroke:rgb(125,206,160);" />
<circle cx="39.8308" cy="76.5751" r="1.44"  style="fill:none;stroke-width:0.9648;stroke:rgb(125,206,160);" />
<circle cx="12.5738" cy="60.8383" r="1.44"  style="fill:none;stroke-width:0.9648;stroke:rgb(125,206,160);" />
<circle cx="12.5738" cy="29.3647" r="1.44"  style="fill:none;stroke-width:0.9648;stroke:rgb(125,206,160);" />
<path d="M41.0779,14.3479L65.8406,28.6447"  style="fill:none;stroke-width:0.9648;stroke:rgb(125,206,160);" />
<path d="M67.0877,30.8047L67.0877,59.3984"  style="fill:none;stroke-width:0.9648;stroke:rgb(125,206,160);" />
<path d="M65.8406,61.5583L41.0779,75.8551"  style="fill:none;stroke-width:0.9648;stroke:rgb(125,206,160);" />
<path d="M38.5837,75.8551L13.8209,61.5583"  style="fill:none;stroke-width:0.9648;stroke:rgb(125,206,160);" />
<path d="M12.5738,59.3984L12.5738,30.8047"  style="fill:none;stroke-width:0.9648;stroke:rgb(125,206,160);" />
<path d="M13.8209,28.6447L38.5837,14.3479"  style="fill:none;stroke-width:0.9648;stroke:rgb(125,206,160);" />
<circle cx="39.8308" cy="21.4965" r="1.44"  style="fill:none;stroke-width:0.9648;stroke:rgb(82,190,128);" />
<circle cx="60.2733" cy="33.299" r="1.44"  style="fill:none;stroke-width:0.9648;stroke:rgb(82,190,128);" />
<circle cx="60.2733" cy="56.904" r="1.44"  style="fill:none;stroke-width:0.9648;stroke:rgb(82,190,128);" />
<circle cx="39.8308" cy="68.7065" r="1.44"  style="fill:none;stroke-width:0.9648;stroke:rgb(82,190,128);" />
<circle cx="19.3883" cy="56.904" r="1.44"  style="fill:none;stroke-width:0.9648;stroke:rgb(82,190,128);" />
<circle cx="19.3883" cy="33.299" r="1.44"  style="fill:none;stroke-width:0.9648;stroke:rgb(82,190,128);" />
<path d="M41.0779,22.2165L59.0262,32.579"  style="fill:none;stroke-width:0.9648;stroke:rgb(82,190,128);" />
<path d="M60.2733,34.739L60.2733,55.4641"  style="fill:none;stroke-width:0.9648;stroke:rgb(82,190,128);" />
<path d="M59.0262,57.624L41.0779,67.9865"  style="fill:none;stroke-width:0.9648;stroke:rgb(82,190,128);" />
<path d="M38.5837,67.9865L20.6353,57.624"  style="fill:none;stroke-width:0.9648;stroke:rgb(82,190,128);" />
<path d="M19.3883,55.4641L19.3883,34.739"  style="fill:none;stroke-width:0.9648;stroke:rgb(82,190,128);" />
<path d="M20.6353,32.579L38.5837,22.2165"  style="fill:none;stroke-width:0.9648;stroke:rgb(82,190,128);" />
<path d="M59.0883,57.7221Q39.8308,71.0165 20.5733,57.7221"  style="fill:none;stroke-width:0.9648;stroke:rgb(82,190,128);" />
<path d="M59.0883,32.481Q39.8308,19.1865 20.5733,32.481"  style="fill:none;stroke-width:0.9648;stroke:rgb(82,190,128);" />
</svg>
